<svg width="24" height="25" viewBox="0 0 24 25" fill="none" xmlns="http://www.w3.org/2000/svg">
<path d="M20.5982 19.8413H3.40182C3.1799 19.8413 3 19.6614 3 19.4395C3 19.3278 3.04647 19.2212 3.12826 19.1452L4.24138 18.1105C5.03302 17.3747 5.48276 16.3427 5.48276 15.2619V11.3585C5.48276 7.75918 8.40063 4.84131 12 4.84131C15.5994 4.84131 18.5172 7.75918 18.5172 11.3585V16.9567L20.8717 19.1452C20.9535 19.2212 21 19.3278 21 19.4395C21 19.6614 20.8201 19.8413 20.5982 19.8413Z" stroke="#4A4A4A" stroke-width="1.14545" stroke-linecap="round" stroke-linejoin="round"/>
<path d="M9 19.8413V19.8413C9 21.4982 10.3431 22.8413 12 22.8413V22.8413C13.6569 22.8413 15 21.4982 15 19.8413V19.8413" stroke="#4A4A4A" stroke-width="1.14545" stroke-linecap="round" stroke-linejoin="round"/>
<path d="M14 4.8418V4.8418C14 3.73723 13.1046 2.8418 12 2.8418V2.8418C10.8954 2.8418 10 3.73723 10 4.8418V4.8418" stroke="#4A4A4A" stroke-width="1.14545" stroke-linecap="round" stroke-linejoin="round"/>
</svg>
