<svg width="24" height="25" viewBox="0 0 24 25" fill="none" xmlns="http://www.w3.org/2000/svg">
<path d="M22 14.5918C22 10.0354 18.3063 6.3418 13.75 6.3418C9.19365 6.3418 5.5 10.0354 5.5 14.5918V22.0327C5.5 22.4044 5.8912 22.6462 6.22365 22.4799L8.7992 21.1918C10.1782 22.2278 11.8924 22.8418 13.75 22.8418C18.3063 22.8418 22 19.1481 22 14.5918Z" stroke="#4A4A4A" stroke-width="1.2"/>
<path d="M18.3356 15.5091C18.8419 15.5091 19.2523 15.0987 19.2523 14.5924C19.2523 14.0862 18.8419 13.6758 18.3356 13.6758C17.8294 13.6758 17.4189 14.0862 17.4189 14.5924C17.4189 15.0987 17.8294 15.5091 18.3356 15.5091Z" fill="#4A4A4A"/>
<path d="M13.7526 15.5091C14.2589 15.5091 14.6693 15.0987 14.6693 14.5924C14.6693 14.0862 14.2589 13.6758 13.7526 13.6758C13.2463 13.6758 12.8359 14.0862 12.8359 14.5924C12.8359 15.0987 13.2463 15.5091 13.7526 15.5091Z" fill="#4A4A4A"/>
<path d="M9.1696 15.5091C9.67586 15.5091 10.0863 15.0987 10.0863 14.5924C10.0863 14.0862 9.67586 13.6758 9.1696 13.6758C8.66334 13.6758 8.25293 14.0862 8.25293 14.5924C8.25293 15.0987 8.66334 15.5091 9.1696 15.5091Z" fill="#4A4A4A"/>
<path d="M5.2992 17.6918L2.72365 18.9799C2.3912 19.1462 2 18.9044 2 18.5327V11.0918C2 6.53545 5.69365 2.8418 10.25 2.8418C13.456 2.8418 16.2349 4.67054 17.6004 7.3418" stroke="#4A4A4A" stroke-width="1.2"/>
</svg>
