<svg width="24" height="25" viewBox="0 0 24 25" fill="none" xmlns="http://www.w3.org/2000/svg">
<path d="M16 7.28624V2.8418H3V22.8418H16V18.9529" stroke="#006FFD" stroke-width="1.2" stroke-linecap="round" stroke-linejoin="round"/>
<path d="M8.57574 12.4175C8.34142 12.6518 8.34142 13.0317 8.57574 13.2661L12.3941 17.0844C12.6284 17.3188 13.0083 17.3188 13.2426 17.0844C13.477 16.8501 13.477 16.4702 13.2426 16.2359L9.84853 12.8418L13.2426 9.44768C13.477 9.21337 13.477 8.83347 13.2426 8.59916C13.0083 8.36484 12.6284 8.36484 12.3941 8.59916L8.57574 12.4175ZM22 13.4418C22.3314 13.4418 22.6 13.1732 22.6 12.8418C22.6 12.5104 22.3314 12.2418 22 12.2418V13.4418ZM9 13.4418H22V12.2418H9V13.4418Z" fill="#006FFD"/>
</svg>
