<svg width="15" height="16" viewBox="0 0 15 16" fill="none" xmlns="http://www.w3.org/2000/svg">
<mask id="mask0_1723_2202" style="mask-type:alpha" maskUnits="userSpaceOnUse" x="0" y="1" width="15" height="14">
<path fill-rule="evenodd" clip-rule="evenodd" d="M1.21209 2.05388C1.5782 1.68777 2.1718 1.68777 2.53791 2.05388L13.7879 13.3039C14.154 13.67 14.154 14.2636 13.7879 14.6297C13.4218 14.9958 12.8282 14.9958 12.4621 14.6297L1.21209 3.37971C0.845971 3.01359 0.845971 2.42 1.21209 2.05388Z" fill="#006FFD"/>
<path fill-rule="evenodd" clip-rule="evenodd" d="M13.7879 2.05388C13.4218 1.68777 12.8282 1.68777 12.4621 2.05388L1.21209 13.3039C0.845971 13.67 0.845971 14.2636 1.21209 14.6297C1.5782 14.9958 2.1718 14.9958 2.53791 14.6297L13.7879 3.37971C14.154 3.01359 14.154 2.42 13.7879 2.05388Z" fill="#006FFD"/>
</mask>
<g mask="url(#mask0_1723_2202)">
<rect y="0.841797" width="15" height="15" fill="#A7A7A7"/>
</g>
</svg>
