<svg width="24" height="25" viewBox="0 0 24 25" fill="none" xmlns="http://www.w3.org/2000/svg">
<path d="M12.5 3.8418H5C3.89543 3.8418 3 4.73723 3 5.8418V19.8418C3 20.9464 3.89543 21.8418 5 21.8418H19C20.1046 21.8418 21 20.9464 21 19.8418V12.3418" stroke="#4A4A4A" stroke-width="1.2" stroke-linecap="round"/>
<path d="M18.6888 9.70129L12.3566 15.9879C12.1225 16.2203 11.8346 16.3912 11.5184 16.4854L7.76128 17.6044C7.57411 17.6601 7.39816 17.4893 7.4483 17.3006L8.36383 13.8545C8.45307 13.5186 8.6283 13.2117 8.87226 12.9642L15.3642 6.37664M18.6888 9.70129L20.5055 7.88459C21.2866 7.10354 21.2866 5.83721 20.5055 5.05616L20.0093 4.55994C19.2283 3.77889 17.9619 3.77889 17.1809 4.55994L15.3642 6.37664M18.6888 9.70129L15.3642 6.37664" stroke="#4A4A4A" stroke-width="1.2"/>
</svg>
