<svg width="24" height="25" viewBox="0 0 24 25" fill="none" xmlns="http://www.w3.org/2000/svg">
<path d="M17 22.8418L4 22.8418C2.89543 22.8418 2 21.9464 2 20.8418L2 9.8418C2 8.73723 2.89543 7.8418 4 7.8418L8.44506 7.8418L12.6016 10.7264L17 10.7264C18.1046 10.7264 19 11.6219 19 12.7264L19 20.8418C19 21.9464 18.1046 22.8418 17 22.8418Z" stroke="#4A4A4A" stroke-width="1.2" stroke-linecap="round" stroke-linejoin="round"/>
<path d="M7 7.17513V4.8418C7 3.73723 7.89543 2.8418 9 2.8418H14.5833H20.1667C21.2712 2.8418 22.1667 3.73723 22.1667 4.8418V16.0085C22.1667 17.113 21.2712 18.0085 20.1667 18.0085H19" stroke="#4A4A4A" stroke-width="1.2" stroke-linecap="round"/>
<path d="M11 5.8418L19 5.8418" stroke="#4A4A4A" stroke-width="1.2" stroke-linecap="round" stroke-linejoin="round"/>
<path d="M13 7.8418L19 7.8418" stroke="#4A4A4A" stroke-width="1.2" stroke-linecap="round" stroke-linejoin="round"/>
</svg>
