<svg width="20" height="21" viewBox="0 0 20 21" fill="none" xmlns="http://www.w3.org/2000/svg">
<g id="Hamburger Menu">
<mask id="mask0_1723_2032" style="mask-type:alpha" maskUnits="userSpaceOnUse" x="1" y="3" width="18" height="16">
<path id="Shape" fill-rule="evenodd" clip-rule="evenodd" d="M1.66699 4.5918C1.66699 4.26028 1.79242 3.94233 2.01567 3.70791C2.23893 3.47349 2.54173 3.3418 2.85747 3.3418H17.1432C17.4589 3.3418 17.7617 3.47349 17.985 3.70791C18.2082 3.94233 18.3337 4.26028 18.3337 4.5918C18.3337 4.92332 18.2082 5.24126 17.985 5.47568C17.7617 5.7101 17.4589 5.8418 17.1432 5.8418H2.85747C2.54173 5.8418 2.23893 5.7101 2.01567 5.47568C1.79242 5.24126 1.66699 4.92332 1.66699 4.5918ZM1.66699 10.8418C1.66699 10.5103 1.79242 10.1923 2.01567 9.95791C2.23893 9.72349 2.54173 9.5918 2.85747 9.5918H17.1432C17.4589 9.5918 17.7617 9.72349 17.985 9.95791C18.2082 10.1923 18.3337 10.5103 18.3337 10.8418C18.3337 11.1733 18.2082 11.4913 17.985 11.7257C17.7617 11.9601 17.4589 12.0918 17.1432 12.0918H2.85747C2.54173 12.0918 2.23893 11.9601 2.01567 11.7257C1.79242 11.4913 1.66699 11.1733 1.66699 10.8418ZM1.66699 17.0918C1.66699 16.7603 1.79242 16.4423 2.01567 16.2079C2.23893 15.9735 2.54173 15.8418 2.85747 15.8418H17.1432C17.4589 15.8418 17.7617 15.9735 17.985 16.2079C18.2082 16.4423 18.3337 16.7603 18.3337 17.0918C18.3337 17.4233 18.2082 17.7413 17.985 17.9757C17.7617 18.2101 17.4589 18.3418 17.1432 18.3418H2.85747C2.54173 18.3418 2.23893 18.2101 2.01567 17.9757C1.79242 17.7413 1.66699 17.4233 1.66699 17.0918Z" fill="#006FFD"/>
</mask>
<g mask="url(#mask0_1723_2032)">
<rect id="Fill" y="0.841797" width="20" height="20" fill="white"/>
</g>
</g>
</svg>
