<svg width="20" height="21" viewBox="0 0 20 21" fill="none" xmlns="http://www.w3.org/2000/svg">
<path d="M12.1685 17.8879C12.1685 18.8965 11.3433 19.7217 10.3347 19.7217C9.317 19.7217 8.50098 18.8965 8.50098 17.8879H12.1685Z" fill="white"/>
<path d="M15.8363 9.63564V14.2203L17.67 16.0541V16.971H5.8996L15.2837 6.8651C15.6463 7.69255 15.8363 8.63514 15.8363 9.63564Z" fill="white"/>
<path d="M14.4694 5.53764L3.85264 16.971H3V16.0541L4.83375 14.2203V9.63564C4.83375 6.81152 6.32826 4.4642 8.95969 3.84069V3.21718C8.95969 2.45614 9.57399 1.8418 10.335 1.8418C11.096 1.8418 11.7103 2.45614 11.7103 3.21718V3.84069C12.853 4.1124 13.7833 4.71321 14.4694 5.53764Z" fill="white"/>
</svg>
