<svg width="16" height="17" viewBox="0 0 16 17" fill="none" xmlns="http://www.w3.org/2000/svg">
<mask id="mask0_1723_2046" style="mask-type:alpha" maskUnits="userSpaceOnUse" x="0" y="1" width="16" height="16">
<path d="M8.99968 2.17529C8.99968 1.62301 8.55196 1.17529 7.99968 1.17529C7.44739 1.17529 6.99968 1.62301 6.99968 2.17529V7.84196H1.33301C0.780724 7.84196 0.333008 8.28967 0.333008 8.84196C0.333008 9.39424 0.780724 9.84196 1.33301 9.84196H6.99968V15.5086C6.99968 16.0609 7.44739 16.5086 7.99968 16.5086C8.55196 16.5086 8.99968 16.0609 8.99968 15.5086V9.84196H14.6663C15.2186 9.84196 15.6663 9.39425 15.6663 8.84196C15.6663 8.28967 15.2186 7.84196 14.6663 7.84196H8.99968V2.17529Z" fill="#006FFD"/>
</mask>
<g mask="url(#mask0_1723_2046)">
<rect y="0.841797" width="16" height="16" fill="#0DABC0"/>
</g>
</svg>
