<svg width="24" height="25" viewBox="0 0 24 25" fill="none" xmlns="http://www.w3.org/2000/svg">
<path fill-rule="evenodd" clip-rule="evenodd" d="M15.5 14.8418H14.71L14.43 14.5718C15.41 13.4318 16 11.9518 16 10.3418C16 6.7518 13.09 3.8418 9.5 3.8418C5.91 3.8418 3 6.7518 3 10.3418C3 13.9318 5.91 16.8418 9.5 16.8418C11.11 16.8418 12.59 16.2518 13.73 15.2718L14 15.5518V16.3418L19 21.3318L20.49 19.8418L15.5 14.8418ZM9.5 14.8418C7.01 14.8418 5 12.8318 5 10.3418C5 7.8518 7.01 5.8418 9.5 5.8418C11.99 5.8418 14 7.8518 14 10.3418C14 12.8318 11.99 14.8418 9.5 14.8418Z" fill="#006FFD"/>
</svg>
