<svg width="12" height="13" viewBox="0 0 12 13" fill="none" xmlns="http://www.w3.org/2000/svg">
<mask id="mask0_1723_2051" style="mask-type:alpha" maskUnits="userSpaceOnUse" x="0" y="1" width="12" height="12">
<path d="M0.411731 5.06149C0.345141 5.08368 0.286115 5.12411 0.241367 5.17818C0.196619 5.23226 0.167945 5.29781 0.158607 5.36737C0.149269 5.43694 0.159642 5.50773 0.188546 5.57169C0.21745 5.63565 0.263724 5.69021 0.322105 5.72918L3.63826 7.55722C3.70007 7.59128 3.77023 7.60721 3.84068 7.60318C3.91114 7.59914 3.97902 7.57531 4.03654 7.53442L7.55952 5.02225C7.72976 4.90823 7.9334 5.11187 7.81938 5.28211L5.30721 8.80509C5.26632 8.86261 5.24249 8.93049 5.23845 9.00095C5.23442 9.0714 5.25034 9.14156 5.2844 9.20337L7.11245 12.5195C7.15141 12.5779 7.20598 12.6242 7.26994 12.6531C7.3339 12.682 7.40469 12.6924 7.47426 12.683C7.54382 12.6737 7.60937 12.645 7.66344 12.6003C7.71752 12.5555 7.75795 12.4965 7.78014 12.4299L11.2273 2.08846C11.2492 2.02243 11.2524 1.9516 11.2363 1.88388C11.2203 1.81617 11.1858 1.75425 11.1366 1.70505C11.0874 1.65585 11.0255 1.62131 10.9577 1.60529C10.89 1.58927 10.8192 1.59241 10.7532 1.61435L0.411731 5.06149Z" fill="white"/>
</mask>
<g mask="url(#mask0_1723_2051)">
<rect y="0.841797" width="12" height="12" fill="white"/>
</g>
</svg>
